# xmcd
#
# Track frame offsets:
#	150
#	14960
#	30267
#
# Disc length: 649 seconds
#
# Revision: 0
# Processed by: cddbd v1.5.2PL0 Copyright (c) Steve Scherf et al.
# Submitted via: audiograbber 1.83.01
#
DISCID=1c028703
DTITLE=Allan Caswell - A Little Bit Of Country In Us All
DYEAR=2006
DGENRE=Country
TTITLE0=A Little Bit Of Country In Us All
TTITLE1=The Candle
TTITLE2=Country
EXTD=
EXTT0=
EXTT1=
EXTT2=
PLAYORDER=
